<svg width="40" height="41" viewBox="0 0 40 41" fill="none" xmlns="http://www.w3.org/2000/svg">
<path d="M36.25 7.04297H33.75C33.4185 7.04297 33.1005 7.17467 32.8661 7.40909C32.6317 7.64351 32.5 7.96145 32.5 8.29297C32.5 8.62449 32.6317 8.94243 32.8661 9.17685C33.1005 9.41127 33.4185 9.54297 33.75 9.54297H36.25V24.543H31.25V9.54297C31.25 9.51572 31.2361 9.49134 31.2344 9.46434C31.2274 9.35489 31.2059 9.24685 31.1704 9.14309C31.1585 9.1031 31.1445 9.06375 31.1285 9.02522C31.0695 8.88953 30.9866 8.76556 30.8838 8.65922L24.6338 2.40922C24.5272 2.30617 24.4031 2.22314 24.2671 2.16409C24.2291 2.14833 24.1902 2.13452 24.1508 2.12272C24.0464 2.0869 23.9377 2.06529 23.8276 2.05847C23.801 2.05672 23.7769 2.04297 23.75 2.04297H10C9.66848 2.04297 9.35054 2.17466 9.11612 2.40909C8.8817 2.64351 8.75 2.96145 8.75 3.29297V24.543H3.75V9.54297H6.25C6.58152 9.54297 6.89946 9.41127 7.13388 9.17685C7.3683 8.94243 7.5 8.62449 7.5 8.29297C7.5 7.96145 7.3683 7.64351 7.13388 7.40909C6.89946 7.17467 6.58152 7.04297 6.25 7.04297H3.75C3.08716 7.04363 2.45166 7.30724 1.98296 7.77593C1.51427 8.24463 1.25066 8.88013 1.25 9.54297V29.543C1.25066 30.2058 1.51427 30.8413 1.98296 31.31C2.45166 31.7787 3.08716 32.0423 3.75 32.043H15V33.0903C15.0008 33.9792 14.7215 34.8458 14.2017 35.5669C13.6819 36.288 12.9481 36.8269 12.1045 37.1071C11.8229 37.2009 11.5839 37.392 11.4302 37.6459C11.2766 37.8999 11.2183 38.2003 11.2659 38.4933C11.3135 38.7863 11.4637 39.0528 11.6899 39.2451C11.916 39.4375 12.2032 39.543 12.5 39.543H27.5C27.7968 39.543 28.084 39.4375 28.3101 39.2451C28.5363 39.0528 28.6865 38.7863 28.7341 38.4933C28.7817 38.2003 28.7234 37.8999 28.5698 37.6459C28.4161 37.392 28.1771 37.2009 27.8955 37.1071C27.0519 36.8269 26.3181 36.288 25.7983 35.5669C25.2785 34.8458 24.9992 33.9792 25 33.0903V32.043H36.25C36.9128 32.0423 37.5483 31.7787 38.017 31.31C38.4857 30.8413 38.7493 30.2058 38.75 29.543V9.54297C38.7493 8.88013 38.4857 8.24463 38.017 7.77593C37.5483 7.30724 36.9128 7.04363 36.25 7.04297ZM26.9824 8.29297H25V6.31059L26.9824 8.29297ZM11.25 4.54297H22.5V9.54297C22.5 9.87449 22.6317 10.1924 22.8661 10.4269C23.1005 10.6613 23.4185 10.793 23.75 10.793H28.75V24.543H11.25V4.54297ZM23.7799 37.043H16.2201C17.0535 35.8937 17.5015 34.51 17.5 33.0903V32.043H22.5V33.0903C22.4985 34.51 22.9465 35.8937 23.7799 37.043V37.043ZM36.25 29.543H3.75V27.043H36.25V29.543Z" fill="#3F7FE0"/>
<path d="M22.5 14.543H21.25V13.293C21.25 12.9614 21.1183 12.6435 20.8839 12.4091C20.6495 12.1747 20.3315 12.043 20 12.043C19.6685 12.043 19.3505 12.1747 19.1161 12.4091C18.8817 12.6435 18.75 12.9614 18.75 13.293V14.543H17.5C17.1685 14.543 16.8505 14.6747 16.6161 14.9091C16.3817 15.1435 16.25 15.4614 16.25 15.793C16.25 16.1245 16.3817 16.4424 16.6161 16.6769C16.8505 16.9113 17.1685 17.043 17.5 17.043H18.75V18.293C18.75 18.6245 18.8817 18.9424 19.1161 19.1769C19.3505 19.4113 19.6685 19.543 20 19.543C20.3315 19.543 20.6495 19.4113 20.8839 19.1769C21.1183 18.9424 21.25 18.6245 21.25 18.293V17.043H22.5C22.8315 17.043 23.1495 16.9113 23.3839 16.6769C23.6183 16.4424 23.75 16.1245 23.75 15.793C23.75 15.4614 23.6183 15.1435 23.3839 14.9091C23.1495 14.6747 22.8315 14.543 22.5 14.543Z" fill="#80AFF5"/>
</svg>
