<svg width="40" height="41" viewBox="0 0 40 41" fill="none" xmlns="http://www.w3.org/2000/svg">
<path d="M6.66625 21.6263H9.16624V34.1263C9.16741 35.231 9.60676 36.2902 10.3879 37.0713C11.1691 37.8525 12.2282 38.2918 13.3329 38.293H33.3329C34.4376 38.2918 35.4968 37.8525 36.2779 37.0713C37.0591 36.2902 37.4984 35.231 37.4996 34.1263V7.45964C37.4984 6.35492 37.0591 5.29579 36.2779 4.51464C35.4968 3.73349 34.4376 3.29413 33.3329 3.29297H6.66625C6.43368 3.29282 6.20151 3.31187 5.97208 3.34994C4.98213 3.54391 4.09189 4.07977 3.4571 4.86378C2.8223 5.64779 2.48337 6.63002 2.49958 7.63867V17.4596C2.50074 18.5644 2.9401 19.6235 3.72125 20.4046C4.5024 21.1858 5.56153 21.6251 6.66625 21.6263ZM33.3329 4.95964C33.9957 4.96036 34.6312 5.22398 35.0999 5.69267C35.5686 6.16135 35.8322 6.79682 35.8329 7.45964V29.9596H34.9996C34.7786 29.9596 34.5666 30.0474 34.4103 30.2037C34.254 30.36 34.1662 30.572 34.1662 30.793C34.1662 31.014 34.254 31.2259 34.4103 31.3822C34.5666 31.5385 34.7786 31.6263 34.9996 31.6263H35.8329V34.1263C35.8322 34.7891 35.5686 35.4246 35.0999 35.8933C34.6312 36.362 33.9957 36.6256 33.3329 36.6263H13.3329C12.6701 36.6256 12.0346 36.362 11.5659 35.8933C11.0973 35.4246 10.8336 34.7891 10.8329 34.1263V31.6263H11.6662C11.8873 31.6263 12.0992 31.5385 12.2555 31.3822C12.4118 31.2259 12.4996 31.014 12.4996 30.793C12.4996 30.572 12.4118 30.36 12.2555 30.2037C12.0992 30.0474 11.8873 29.9596 11.6662 29.9596H10.8329V7.45964C10.834 6.55765 10.5409 5.67991 9.99791 4.95964H33.3329ZM4.16625 7.63867C4.14767 7.02471 4.34512 6.42369 4.7242 5.94037C5.10327 5.45705 5.63992 5.12207 6.24063 4.99382C6.38139 4.97129 6.5237 4.95986 6.66625 4.95964C7.32906 4.96036 7.96453 5.22398 8.43321 5.69267C8.9019 6.16135 9.16552 6.79682 9.16624 7.45964V19.9596H6.66625C6.00343 19.9589 5.36796 19.6953 4.89928 19.2266C4.43059 18.7579 4.16697 18.1225 4.16625 17.4596V7.63867ZM29.9996 30.793C29.9996 30.9024 29.9781 31.0108 29.9363 31.1119C29.8944 31.2131 29.833 31.305 29.7556 31.3824C29.6782 31.4598 29.5864 31.5211 29.4852 31.563C29.3841 31.6049 29.2757 31.6264 29.1662 31.6263H26.2496C26.0286 31.6263 25.8166 31.5385 25.6603 31.3822C25.504 31.2259 25.4162 31.014 25.4162 30.793C25.4162 30.572 25.504 30.36 25.6603 30.2037C25.8166 30.0474 26.0286 29.9596 26.2496 29.9596H29.1662C29.2757 29.9596 29.3841 29.9811 29.4852 30.0229C29.5864 30.0648 29.6782 30.1262 29.7556 30.2036C29.833 30.281 29.8944 30.3729 29.9363 30.474C29.9781 30.5751 29.9996 30.6835 29.9996 30.793ZM21.2496 30.793C21.2496 30.9024 21.2281 31.0108 21.1863 31.1119C21.1444 31.2131 21.083 31.305 21.0056 31.3824C20.9282 31.4598 20.8364 31.5211 20.7352 31.563C20.6341 31.6049 20.5257 31.6264 20.4162 31.6263H17.4996C17.2786 31.6263 17.0666 31.5385 16.9103 31.3822C16.754 31.2259 16.6662 31.014 16.6662 30.793C16.6662 30.572 16.754 30.36 16.9103 30.2037C17.0666 30.0474 17.2786 29.9596 17.4996 29.9596H20.4162C20.5257 29.9596 20.6341 29.9811 20.7352 30.0229C20.8364 30.0648 20.9282 30.1262 21.0056 30.2036C21.083 30.281 21.1444 30.3729 21.1863 30.474C21.2281 30.5751 21.2496 30.6835 21.2496 30.793Z" fill="#3F7FE0" stroke="#3F7FE0"/>
<path d="M25.4541 16.1338H24.2041V14.8838C24.2041 14.5523 24.0724 14.2343 23.838 13.9999C23.6036 13.7655 23.2856 13.6338 22.9541 13.6338C22.6226 13.6338 22.3046 13.7655 22.0702 13.9999C21.8358 14.2343 21.7041 14.5523 21.7041 14.8838V16.1338H20.4541C20.1226 16.1338 19.8046 16.2655 19.5702 16.4999C19.3358 16.7343 19.2041 17.0523 19.2041 17.3838C19.2041 17.7153 19.3358 18.0333 19.5702 18.2677C19.8046 18.5021 20.1226 18.6338 20.4541 18.6338H21.7041V19.8838C21.7041 20.2153 21.8358 20.5333 22.0702 20.7677C22.3046 21.0021 22.6226 21.1338 22.9541 21.1338C23.2856 21.1338 23.6036 21.0021 23.838 20.7677C24.0724 20.5333 24.2041 20.2153 24.2041 19.8838V18.6338H25.4541C25.7856 18.6338 26.1036 18.5021 26.338 18.2677C26.5724 18.0333 26.7041 17.7153 26.7041 17.3838C26.7041 17.0523 26.5724 16.7343 26.338 16.4999C26.1036 16.2655 25.7856 16.1338 25.4541 16.1338Z" fill="#80AFF5"/>
</svg>
