<svg width="36" height="36" viewBox="0 0 36 36" fill="none" xmlns="http://www.w3.org/2000/svg">
<path d="M31.75 0.292969H4.25C3.25577 0.294061 2.30258 0.689499 1.59956 1.39252C0.896531 2.09555 0.501092 3.04874 0.5 4.04297V25.293C0.501092 26.2872 0.896531 27.2404 1.59956 27.9434C2.30258 28.6464 3.25577 29.0419 4.25 29.043H13V32.793H10.5C10.1685 32.793 9.85054 32.9247 9.61612 33.1591C9.3817 33.3935 9.25 33.7114 9.25 34.043C9.25 34.3745 9.3817 34.6924 9.61612 34.9269C9.85054 35.1613 10.1685 35.293 10.5 35.293H25.5C25.8315 35.293 26.1495 35.1613 26.3839 34.9269C26.6183 34.6924 26.75 34.3745 26.75 34.043C26.75 33.7114 26.6183 33.3935 26.3839 33.1591C26.1495 32.9247 25.8315 32.793 25.5 32.793H23V29.043H31.75C32.7442 29.0419 33.6974 28.6464 34.4004 27.9434C35.1035 27.2404 35.4989 26.2872 35.5 25.293V4.04297C35.4989 3.04874 35.1035 2.09555 34.4004 1.39252C33.6974 0.689499 32.7442 0.294061 31.75 0.292969ZM3 14.043H10.5C10.7321 14.043 10.9597 13.9784 11.1572 13.8564C11.3547 13.7343 11.5143 13.5597 11.6181 13.3521L14.308 7.97184L19.408 17.1502C19.5145 17.3419 19.6695 17.5022 19.8576 17.615C20.0456 17.7278 20.26 17.7892 20.4792 17.793H20.5C20.7158 17.793 20.928 17.7371 21.1158 17.6307C21.3036 17.5244 21.4607 17.3713 21.5718 17.1862L24.958 11.543H33V19.043H3V14.043ZM4.25 2.79297H31.75C32.0814 2.7934 32.3991 2.92523 32.6334 3.15956C32.8677 3.39389 32.9996 3.71158 33 4.04297V9.04297H24.25C24.0342 9.04298 23.822 9.09886 23.6342 9.20519C23.4464 9.31152 23.2893 9.46466 23.1782 9.64972L20.5415 14.0442L15.3425 4.68572C15.2274 4.49092 15.0638 4.32929 14.8676 4.21663C14.6714 4.10397 14.4494 4.04414 14.2231 4.04297C13.9956 4.04807 13.7738 4.11508 13.5815 4.23681C13.3893 4.35854 13.2338 4.53038 13.1319 4.73384L9.72725 11.543H3V4.04297C3.00043 3.71158 3.13226 3.39389 3.36659 3.15956C3.60092 2.92523 3.91861 2.7934 4.25 2.79297ZM20.5 32.793H15.5V29.043H20.5V32.793ZM31.75 26.543H4.25C3.91861 26.5425 3.60092 26.4107 3.36659 26.1764C3.13226 25.942 3.00043 25.6244 3 25.293V21.543H33V25.293C32.9996 25.6244 32.8677 25.942 32.6334 26.1764C32.3991 26.4107 32.0814 26.5425 31.75 26.543Z" fill="#3F7FE0"/>
<path d="M10.5 14.0341H3V11.5341H9.72725L13.1319 4.72495C13.2338 4.52149 13.3893 4.34965 13.5815 4.22792C13.8495 4.0605 14.4819 3.82206 14.8676 4.20774C15.0638 4.3204 15.2274 4.48203 15.3425 4.67683L20.5415 14.0353L23.1782 9.64083C23.2893 9.45577 23.4464 9.30263 23.6342 9.1963C23.822 9.08997 24.0342 9.03409 24.25 9.03408H33V11.5341H24.958L21.5718 17.1773C21.4607 17.3624 21.3036 17.5155 21.1158 17.6219C20.928 17.7282 20.7158 17.7841 20.5 17.7841H20.4792C20.26 17.7803 20.0456 17.7189 19.8576 17.6061C19.6695 17.4933 19.5145 17.333 19.408 17.1413L14.308 7.96295L11.6181 13.3432C11.5143 13.5508 11.3547 13.7254 11.1572 13.8475C10.9597 13.9695 10.7321 14.0341 10.5 14.0341Z" fill="#80AFF5"/>
<path d="M8 25.293C8.69036 25.293 9.25 24.7333 9.25 24.043C9.25 23.3526 8.69036 22.793 8 22.793C7.30964 22.793 6.75 23.3526 6.75 24.043C6.75 24.7333 7.30964 25.293 8 25.293Z" fill="#80AFF5"/>
<path d="M11.75 25.293C12.4404 25.293 13 24.7333 13 24.043C13 23.3526 12.4404 22.793 11.75 22.793C11.0596 22.793 10.5 23.3526 10.5 24.043C10.5 24.7333 11.0596 25.293 11.75 25.293Z" fill="#80AFF5"/>
</svg>
