<svg width="24" height="22" viewBox="0 0 24 22" fill="none" xmlns="http://www.w3.org/2000/svg">
<path d="M23.2174 0.733398H6.78261C6.35039 0.733398 6 1.18111 6 1.7334V2.7334C6 3.28568 6.35039 3.7334 6.78261 3.7334H23.2174C23.6496 3.7334 24 3.28568 24 2.7334V1.7334C24 1.18111 23.6496 0.733398 23.2174 0.733398Z" fill="#11438F"/>
<path d="M22.9565 9.7334H1.04348C0.467181 9.7334 0 10.1811 0 10.7334V11.7334C0 12.2857 0.467181 12.7334 1.04348 12.7334H22.9565C23.5328 12.7334 24 12.2857 24 11.7334V10.7334C24 10.1811 23.5328 9.7334 22.9565 9.7334Z" fill="#11438F"/>
<path d="M23.4783 18.7334H12.5217C12.2336 18.7334 12 19.1811 12 19.7334V20.7334C12 21.2857 12.2336 21.7334 12.5217 21.7334H23.4783C23.7664 21.7334 24 21.2857 24 20.7334V19.7334C24 19.1811 23.7664 18.7334 23.4783 18.7334Z" fill="#11438F"/>
</svg>
