<svg width="40" height="41" viewBox="0 0 40 41" fill="none" xmlns="http://www.w3.org/2000/svg">
<path d="M37.5 24.1262V37.4596C37.5 37.6806 37.4122 37.8925 37.2559 38.0488C37.0996 38.2051 36.8877 38.2929 36.6667 38.2929C36.4457 38.2929 36.2337 38.2051 36.0774 38.0488C35.9211 37.8925 35.8333 37.6806 35.8333 37.4596V31.6262H4.16667V37.4596C4.16667 37.6806 4.07887 37.8925 3.92259 38.0488C3.76631 38.2051 3.55435 38.2929 3.33333 38.2929C3.11232 38.2929 2.90036 38.2051 2.74408 38.0488C2.5878 37.8925 2.5 37.6806 2.5 37.4596V7.45955C2.5 7.23854 2.5878 7.02658 2.74408 6.8703C2.90036 6.71402 3.11232 6.62622 3.33333 6.62622C3.55435 6.62622 3.76631 6.71402 3.92259 6.8703C4.07887 7.02658 4.16667 7.23854 4.16667 7.45955V23.2929H6.68772C6.13667 22.5757 5.83649 21.6973 5.83333 20.7929C5.83333 19.6878 6.27232 18.628 7.05372 17.8466C7.83512 17.0652 8.89493 16.6262 10 16.6262C11.1051 16.6262 12.1649 17.0652 12.9463 17.8466C13.7277 18.628 14.1667 19.6878 14.1667 20.7929C14.1635 21.6973 13.8633 22.5757 13.3123 23.2929H15.8333V19.1262C15.8341 18.4634 16.0977 17.8279 16.5664 17.3593C17.0351 16.8906 17.6705 16.6269 18.3333 16.6262H22.3194L22.8751 18.2929H18.3333C18.1124 18.2932 17.9006 18.3811 17.7444 18.5373C17.5882 18.6935 17.5003 18.9053 17.5 19.1262V23.2929H35.7747C35.5836 22.0057 34.9674 20.8194 34.0242 19.9229C33.081 19.0264 31.865 18.4711 30.5697 18.3455L31.2086 16.7484C32.9614 17.0332 34.5561 17.9313 35.7084 19.2826C36.8607 20.6338 37.4956 22.3504 37.5 24.1262ZM7.5 20.7929C7.5 21.2873 7.64662 21.7707 7.92133 22.1818C8.19603 22.5929 8.58648 22.9134 9.04329 23.1026C9.50011 23.2918 10.0028 23.3413 10.4877 23.2449C10.9727 23.1484 11.4181 22.9103 11.7678 22.5607C12.1174 22.211 12.3555 21.7656 12.452 21.2806C12.5484 20.7957 12.4989 20.293 12.3097 19.8362C12.1205 19.3794 11.8 18.9889 11.3889 18.7142C10.9778 18.4395 10.4945 18.2929 10 18.2929C9.33718 18.2936 8.70172 18.5572 8.23303 19.0259C7.76435 19.4946 7.50072 20.1301 7.5 20.7929ZM35.8333 24.9596H4.16667V29.9596H35.8333V24.9596Z" fill="#3F7FE0" stroke="#3F7FE0"/>
<path d="M37.3609 11.3388C37.4028 11.2377 37.4243 11.1293 37.4242 11.0199C37.4243 10.9104 37.4028 10.802 37.3609 10.7009C37.3191 10.5998 37.2577 10.5079 37.1803 10.4305C37.1029 10.3531 37.011 10.2917 36.9099 10.2498C36.8088 10.208 36.7004 10.1865 36.5909 10.1865H29.9242C29.7577 10.1865 29.595 10.2364 29.4572 10.3298C29.3194 10.4233 29.2128 10.5559 29.1512 10.7106L26.6626 16.9313L22.3819 4.08954C22.3296 3.93327 22.2322 3.79601 22.1019 3.69506C21.9717 3.59412 21.8145 3.53402 21.6501 3.52236C21.4857 3.51069 21.3216 3.54798 21.1784 3.62951C21.0352 3.71105 20.9193 3.83318 20.8455 3.98049L17.7433 10.1865H9.92424C9.70323 10.1865 9.49127 10.2743 9.33499 10.4306C9.17871 10.5869 9.09091 10.7989 9.09091 11.0199C9.09091 11.2409 9.17871 11.4528 9.33499 11.6091C9.49127 11.7654 9.70323 11.8532 9.92424 11.8532H18.2576C18.4123 11.8532 18.564 11.81 18.6956 11.7287C18.8273 11.6473 18.9337 11.5309 19.0029 11.3926L21.4362 6.5252L25.7998 19.6169C25.854 19.7788 25.9566 19.9203 26.0937 20.0221C26.2308 20.124 26.3958 20.1814 26.5665 20.1865H26.5909C26.7574 20.1865 26.9201 20.1366 27.0579 20.0432C27.1957 19.9497 27.3024 19.8171 27.364 19.6625L30.489 11.8532H36.5909C36.7004 11.8533 36.8088 11.8318 36.9099 11.7899C37.011 11.748 37.1029 11.6867 37.1803 11.6093C37.2577 11.5319 37.3191 11.44 37.3609 11.3388Z" fill="#80AFF5" stroke="#80AFF5"/>
</svg>
