<svg width="40" height="41" viewBox="0 0 40 41" fill="none" xmlns="http://www.w3.org/2000/svg">
<path d="M37.3977 15.9453L33.4104 15.5254C33.3685 15.3577 33.2845 15.1896 33.2005 15.0637L35.719 11.9576C36.6424 10.8243 36.5584 9.14542 35.5091 8.0961L32.6969 5.28391C31.6475 4.23458 29.9688 4.15056 28.8353 5.07398L25.7293 7.59251C25.5615 7.50848 25.3934 7.46662 25.2675 7.38259L24.8477 3.39522C24.6799 1.92602 23.4626 0.792969 21.9937 0.792969H18.0063C16.5371 0.792969 15.2782 1.92632 15.1523 3.39522L14.7324 7.38259C14.5647 7.46662 14.3966 7.50848 14.2707 7.59251L11.1647 5.07398C10.0313 4.15057 8.35246 4.23459 7.30313 5.28391L4.49094 8.0961C3.44161 9.14542 3.35759 10.8242 4.28101 11.9576L6.79954 15.0637C6.71552 15.2315 6.67365 15.3995 6.58962 15.5254L2.60225 15.9453C1.13305 16.113 0 17.3304 0 18.7993V22.7866C0 24.2559 1.13335 25.5147 2.60225 25.6407L6.58962 26.0605C6.67365 26.2283 6.71552 26.3963 6.79954 26.5222L4.28101 29.6283C3.3576 30.7617 3.44163 32.4405 4.49094 33.4898L7.30313 36.302C8.35246 37.3514 10.0312 37.4354 11.1647 36.512L14.2707 33.9934C14.4385 34.0775 14.6066 34.1193 14.7324 34.2033L15.1523 38.1907C15.3201 39.6599 16.5374 40.793 18.0063 40.793H21.9937C23.4629 40.793 24.7218 39.6596 24.8477 38.1907L25.2675 34.2033C25.4353 34.1615 25.6034 34.0775 25.7293 33.9934L28.8353 36.512C29.9687 37.4354 31.6475 37.3513 32.6969 36.302L35.5091 33.4898C36.5584 32.4405 36.6424 30.7617 35.719 29.6283L33.2005 26.5222C33.2845 26.3545 33.3263 26.1864 33.4104 26.0605L37.3977 25.6407C38.867 25.4729 40 24.2556 40 22.7866V18.7993C40 17.3304 38.8667 16.1133 37.3977 15.9453ZM37.1038 22.7869L32.4866 23.2487C31.7731 23.3327 31.1433 23.7944 30.9337 24.5079C30.7659 24.9697 30.5979 25.3895 30.3879 25.8512C30.0521 26.5229 30.1361 27.2782 30.5979 27.8659L33.5359 31.4755L30.7237 34.2877L27.1558 31.3497C26.6101 30.888 25.8126 30.8039 25.1412 31.1398C24.6795 31.3497 24.2596 31.5596 23.7979 31.6855C23.1263 31.9373 22.6227 32.5249 22.5387 33.2806L22.0769 37.8977H18.0896L17.6279 33.2806C17.5438 32.567 17.0821 31.9373 16.3686 31.7276C15.9069 31.5599 15.487 31.3918 15.0253 31.1819C14.7735 31.056 14.4796 30.972 14.1859 30.972C13.7661 30.972 13.3465 31.0979 13.0107 31.3918L9.401 34.3298L6.5888 31.5177L9.52684 27.908C9.98856 27.3622 10.0726 26.5647 9.73676 25.8933C9.52684 25.4316 9.31691 25.0118 9.19102 24.5501C8.93923 23.8784 8.35164 23.3748 7.59597 23.2908L2.97879 22.8291V18.8417L7.59597 18.38C8.30948 18.296 8.93926 17.8343 9.19102 17.1207C9.35879 16.659 9.52685 16.2391 9.73676 15.7774C10.0726 15.1058 9.98856 14.3504 9.52684 13.7628L6.5888 10.1531L9.401 7.34093L12.9689 10.279C13.5146 10.7407 14.3121 10.8247 14.9835 10.4889C15.4452 10.279 15.8651 10.069 16.3268 9.94315C16.9984 9.69136 17.502 9.10377 17.586 8.3481L18.0478 3.73092H22.0351L22.4968 8.3481C22.5809 9.06161 23.0844 9.69139 23.7561 9.90103C24.2178 10.0688 24.6377 10.2369 25.0994 10.4468C25.771 10.7826 26.5264 10.6986 27.114 10.2368L30.7237 7.29881L33.5359 10.111L30.5979 13.7207C30.1361 14.2664 30.0521 15.064 30.3879 15.7353C30.5979 16.197 30.8078 16.6169 30.9337 17.0786C31.1855 17.7502 31.7731 18.2538 32.4866 18.3379L37.1038 18.7996V22.7869Z" fill="#3F7FE0"/>
<path d="M24.7637 18.8414H22.1193C22.0353 18.8414 21.9515 18.7574 21.9934 18.6736L22.7909 13.3851C22.9587 12.2939 21.5739 11.7482 20.9441 12.5875L14.5644 21.15C14.0608 21.8217 14.5644 22.8288 15.4038 22.8288H18.0481C18.1322 22.8288 18.2159 22.9129 18.174 22.9966L17.3765 28.2851C17.2087 29.3763 18.5935 29.9221 19.2234 29.0827L25.6033 20.5202C26.1069 19.8067 25.6033 18.8414 24.7637 18.8414Z" fill="#80AFF5"/>
</svg>
