<svg width="40" height="41" viewBox="0 0 40 41" fill="none" xmlns="http://www.w3.org/2000/svg">
<g clip-path="url(#clip0_20_644)">
<path d="M18.3333 19.8081V13.1414C18.3333 12.9204 18.2455 12.7085 18.0893 12.5522C17.933 12.3959 17.721 12.3081 17.5 12.3081C15.5116 12.3103 13.6052 13.1012 12.1991 14.5072C10.7931 15.9133 10.0022 17.8197 10 19.8081C10 20.0291 10.0878 20.2411 10.2441 20.3974C10.4004 20.5536 10.6123 20.6414 10.8333 20.6414H17.5C17.721 20.6414 17.933 20.5536 18.0893 20.3974C18.2455 20.2411 18.3333 20.0291 18.3333 19.8081Z" fill="#80AFF5"/>
<path d="M21.6211 16.4747C21.4072 16.4838 21.2052 16.5759 21.058 16.7315C20.9108 16.8871 20.83 17.0939 20.8328 17.3081V22.7247C20.8328 22.8353 20.7889 22.9412 20.7108 23.0194C20.6326 23.0975 20.5267 23.1414 20.4161 23.1414H14.9995C14.7853 23.1386 14.5785 23.2194 14.4229 23.3666C14.2673 23.5137 14.1752 23.7158 14.1661 23.9297C14.1573 25.4169 14.5907 26.8731 15.4114 28.1134C16.232 29.3536 17.4029 30.3219 18.7752 30.8951C20.1474 31.4683 21.6592 31.6206 23.1182 31.3327C24.5772 31.0447 25.9177 30.3295 26.9693 29.2779C28.0209 28.2263 28.7361 26.8858 29.0241 25.4268C29.312 23.9677 29.1597 22.456 28.5865 21.0838C28.0133 19.7115 27.045 18.5406 25.8048 17.72C24.5645 16.8993 23.1083 16.4658 21.6211 16.4747V16.4747Z" fill="#80AFF5"/>
<path d="M36.178 10.3013L27.1547 1.27797C26.8416 0.966611 26.4179 0.792181 25.9763 0.792971H6.66634C5.78229 0.792971 4.93444 1.14416 4.30932 1.76928C3.6842 2.3944 3.33301 3.24225 3.33301 4.12631V37.4596C3.33301 38.3437 3.6842 39.1915 4.30932 39.8167C4.93444 40.4418 5.78229 40.793 6.66634 40.793H33.333C34.2171 40.793 35.0649 40.4418 35.69 39.8167C36.3152 39.1915 36.6663 38.3437 36.6663 37.4596V11.4796C36.6663 11.0376 36.4906 10.6138 36.178 10.3013V10.3013ZM33.333 36.6263C33.333 36.8473 33.2452 37.0593 33.0889 37.2156C32.9327 37.3718 32.7207 37.4596 32.4997 37.4596H7.49968C7.27866 37.4596 7.0667 37.3718 6.91042 37.2156C6.75414 37.0593 6.66634 36.8473 6.66634 36.6263V4.95964C6.66634 4.73862 6.75414 4.52666 6.91042 4.37038C7.0667 4.2141 7.27866 4.12631 7.49968 4.12631H24.9413C25.1622 4.12679 25.3738 4.21491 25.5297 4.37131L33.0897 11.9263C33.2455 12.0825 33.333 12.2941 33.333 12.5146V36.6263Z" fill="#3F7FE0"/>
</g>
<defs>
<clipPath id="clip0_20_644">
<rect width="40" height="40" fill="white" transform="translate(0 0.792969)"/>
</clipPath>
</defs>
</svg>
