<svg width="33" height="41" viewBox="0 0 33 41" fill="none" xmlns="http://www.w3.org/2000/svg">
<path d="M31.1058 6.66293L31.1164 6.66631L31.1272 6.66953C31.3319 6.73095 31.3996 6.88081 31.3941 6.99222L31.3922 7.02961V7.06704V11.9863C31.3922 17.3697 30.0762 22.5914 27.6458 27.2131L27.6434 27.2178C25.2089 31.8871 21.7005 35.9516 17.2795 39.0185L17.2567 39.0343L17.2345 39.0509C17.0375 39.1987 16.7435 39.293 16.4253 39.293C16.107 39.293 15.813 39.1987 15.616 39.0509L15.5969 39.0366L15.5773 39.0229C6.76326 32.8412 1.5 22.7516 1.5 11.9863V7.06704C1.5 6.87619 1.62862 6.71275 1.78567 6.66316L1.78639 6.66293L14.8298 2.53733C14.8306 2.53708 14.8314 2.53684 14.8322 2.53659C15.8735 2.21177 17.0186 2.21177 18.0598 2.53656C18.0607 2.53681 18.0615 2.53707 18.0623 2.53732L31.1058 6.66293Z" stroke="#3F7FE0" stroke-width="3"/>
<path d="M20.6653 17.8207C21.2335 17.253 21.2335 16.3322 20.6653 15.764V15.7641C20.0976 15.1964 19.1752 15.1964 18.608 15.7646L15.2727 19.0994L13.392 17.2191C12.8249 16.6509 11.9025 16.6509 11.3353 17.2191C10.767 17.7868 10.767 18.7077 11.3353 19.2759L14.2443 22.185C14.5279 22.469 14.9003 22.6111 15.2727 22.6111C15.6451 22.6111 16.0175 22.4696 16.3011 22.185L20.6653 17.8207Z" fill="#80AFF5"/>
</svg>
