<svg width="40" height="41" viewBox="0 0 40 41" fill="none" xmlns="http://www.w3.org/2000/svg">
<path d="M27.5 3.29297H12.5C11.5058 3.29406 10.5526 3.6895 9.84956 4.39252C9.14653 5.09555 8.75109 6.04874 8.75 7.04297V34.543C8.75109 35.5372 9.14653 36.4904 9.84956 37.1934C10.5526 37.8964 11.5058 38.2919 12.5 38.293H27.5C28.4942 38.2919 29.4474 37.8964 30.1504 37.1934C30.8535 36.4904 31.2489 35.5372 31.25 34.543V7.04297C31.2489 6.04874 30.8535 5.09555 30.1504 4.39252C29.4474 3.6895 28.4942 3.29406 27.5 3.29297ZM28.75 34.543C28.7498 34.8744 28.618 35.1923 28.3837 35.4266C28.1493 35.661 27.8315 35.7928 27.5 35.793H12.5C12.1685 35.7928 11.8507 35.661 11.6163 35.4266C11.382 35.1923 11.2502 34.8744 11.25 34.543V7.04297C11.2502 6.71151 11.382 6.39368 11.6163 6.1593C11.8507 5.92493 12.1685 5.79317 12.5 5.79297H14.4824L16.6163 7.92672C16.7323 8.04284 16.87 8.13495 17.0217 8.1978C17.1733 8.26064 17.3359 8.29298 17.5 8.29297H22.5C22.6641 8.29298 22.8267 8.26064 22.9783 8.1978C23.13 8.13495 23.2677 8.04284 23.3838 7.92672L25.5176 5.79297H27.5C27.8315 5.79317 28.1493 5.92493 28.3837 6.1593C28.618 6.39368 28.7498 6.71151 28.75 7.04297V34.543Z" fill="#3F7FE0"/>
<path d="M22.5 19.543H21.25V18.293C21.25 17.9614 21.1183 17.6435 20.8839 17.4091C20.6495 17.1747 20.3315 17.043 20 17.043C19.6685 17.043 19.3505 17.1747 19.1161 17.4091C18.8817 17.6435 18.75 17.9614 18.75 18.293V19.543H17.5C17.1685 19.543 16.8505 19.6747 16.6161 19.9091C16.3817 20.1435 16.25 20.4614 16.25 20.793C16.25 21.1245 16.3817 21.4424 16.6161 21.6769C16.8505 21.9113 17.1685 22.043 17.5 22.043H18.75V23.293C18.75 23.6245 18.8817 23.9424 19.1161 24.1769C19.3505 24.4113 19.6685 24.543 20 24.543C20.3315 24.543 20.6495 24.4113 20.8839 24.1769C21.1183 23.9424 21.25 23.6245 21.25 23.293V22.043H22.5C22.8315 22.043 23.1495 21.9113 23.3839 21.6769C23.6183 21.4424 23.75 21.1245 23.75 20.793C23.75 20.4614 23.6183 20.1435 23.3839 19.9091C23.1495 19.6747 22.8315 19.543 22.5 19.543Z" fill="#80AFF5"/>
</svg>
